# xmcd
#
# Track frame offsets: 
#        150
#        38100
#        86119
#        114257
#        142045
#        153147
#        159528
#        169128
#        253128
#        260490
#
# Disc length: 3657 seconds
#
# Revision: 0
# Processed by: cddbd v1.5.2PL0 Copyright (c) Steve Scherf et al.
# Submitted via: ExactAudioCopy v0.99pb5
#
DISCID=810e470a
DTITLE=CTRLSTIC - Twenty Minutes Of Motherfucker
DYEAR=2013
DGENRE=Noise
TTITLE0=20 Minutes Of Motherfucker, Part 1 
TTITLE1=Live Like This
TTITLE2=Postmodern
TTITLE3=Abomination
TTITLE4=Round Holes In Square Pegs
TTITLE5=Intermission
TTITLE6=For Sigrid
TTITLE7=Lost The Beat
TTITLE8=For Our Homies
TTITLE9=20 Minutes Of Motherfucker, Part 2
EXTD=
EXTT0=
EXTT1=
EXTT2=
EXTT3=
EXTT4=
EXTT5=
EXTT6=
EXTT7=
EXTT8=
EXTT9=
PLAYORDER=
